<svg width="28" height="28" viewBox="0 0 28 28" fill="none" xmlns="http://www.w3.org/2000/svg">
<path d="M22.2535 3.6877L20.61 2.48182L17.8695 5.52769L15.1738 5.06675L14.2324 0.836404L10.2432 1.44911L10.6147 5.76698L8.18154 7.01568L4.65332 4.93262L3.44743 6.57615M3.68861 6.24744L2.48273 7.89097L5.5286 10.6314L5.06766 13.3272L0.837315 14.2686L1.45002 18.2578L5.76789 17.8862L7.01659 20.3194L4.93354 23.8476L6.57706 25.0535M21.9248 3.44652L23.5683 4.6524L21.4853 8.18063L22.734 10.6138L27.0519 10.2423L27.6646 14.2314L23.4342 15.1729L22.9733 17.8686L26.0191 20.6091L25.0544 21.9239L24.8133 22.2526L23.8486 23.5674L20.3203 21.4844L17.8872 22.7331L18.2587 27.0509L14.2695 27.6636L13.3281 23.4333L10.6323 22.9724L7.89188 26.0182L6.24836 24.8124" stroke="#E0E0E0" stroke-width="0.5"/>
<path d="M9.52282 14.0123L17.1336 10.6663L16.2259 18.9305L9.52282 14.0123Z" stroke="white" stroke-width="0.5"/>
</svg>
