<svg width="390" height="390" viewBox="0 0 390 390" fill="none" xmlns="http://www.w3.org/2000/svg">
<rect width="390" height="390" fill="#5412E0"/>
<path d="M76.4232 319.926C67.6854 313.866 65.5152 301.869 71.5759 293.131L174.827 144.273L206.469 166.221L103.218 315.079C97.1575 323.817 85.161 325.987 76.4232 319.926V319.926Z" fill="white"/>
<path d="M296 141.66C296 150.984 288.441 158.542 279.117 158.542H232.656V303.788C232.656 314.345 224.098 322.903 213.541 322.903V322.903C202.984 322.903 194.426 314.345 194.426 303.788V240.723V158.542H147.964C138.64 158.542 131.082 150.984 131.082 141.66V141.66C131.082 132.336 138.64 124.777 147.964 124.777H279.117C288.441 124.777 296 132.336 296 141.66V141.66Z" fill="white"/>
<circle cx="213.11" cy="80.522" r="29.8795" transform="rotate(90.25 213.11 80.522)" fill="white"/>
</svg>
