<svg width="295" height="295" viewBox="0 0 295 295" fill="none" xmlns="http://www.w3.org/2000/svg">
<rect width="294.933" height="294.5" rx="73" fill="white"/>
<path d="M34 57H50.3696C80.337 57 104.63 81.2934 104.63 111.261V237.5H88.2609C58.2934 237.5 34 213.207 34 183.239V57Z" fill="url(#paint0_linear_4409_5849)"/>
<path d="M112.151 148.287H153.564C169.701 148.287 182.782 161.368 182.782 177.505V237.5H141.369C125.232 237.5 112.151 224.419 112.151 208.283V148.287Z" fill="url(#paint1_linear_4409_5849)"/>
<path d="M260.933 57H244.563C214.596 57 190.303 81.2934 190.303 111.261V237.5H206.672C236.64 237.5 260.933 213.207 260.933 183.239V57Z" fill="url(#paint2_linear_4409_5849)"/>
<defs>
<linearGradient id="paint0_linear_4409_5849" x1="98.0906" y1="101.471" x2="51.0036" y2="211.341" gradientUnits="userSpaceOnUse">
<stop stop-color="#4900E3"/>
<stop offset="1" stop-color="#8F00FF"/>
</linearGradient>
<linearGradient id="paint1_linear_4409_5849" x1="176.242" y1="170.267" x2="163.211" y2="231.785" gradientUnits="userSpaceOnUse">
<stop stop-color="#4900E3"/>
<stop offset="1" stop-color="#8F00FF"/>
</linearGradient>
<linearGradient id="paint2_linear_4409_5849" x1="196.842" y1="101.471" x2="243.929" y2="211.341" gradientUnits="userSpaceOnUse">
<stop stop-color="#4900E3"/>
<stop offset="1" stop-color="#8F00FF"/>
</linearGradient>
</defs>
</svg>
