<svg width="29" height="16" viewBox="0 0 29 16" fill="none" xmlns="http://www.w3.org/2000/svg">
<path d="M0 8.54167H3.01832C3.41925 8.54167 3.78141 8.30222 3.93844 7.93332L6.76311 1.29736C7.15955 0.366011 8.53012 0.545624 8.67318 1.54767L10.4812 14.2112C10.6402 15.3246 12.2318 15.3684 12.4518 14.2655L13.7454 7.7823C13.9472 6.77053 15.363 6.69008 15.6782 7.67248L15.7482 7.89065C16.0445 8.81424 17.3502 8.8175 17.6511 7.8954L19.2073 3.12653C19.5185 2.17313 20.8829 2.2201 21.1277 3.19264L23.2798 11.7412C23.5378 12.766 25.0021 12.7423 25.2267 11.7097L25.9441 8.41241C26.0441 7.9528 26.4509 7.625 26.9212 7.625H29" stroke="white" stroke-width="0.5"/>
<path d="M0 8.54167H3.01832C3.41925 8.54167 3.78141 8.30222 3.93844 7.93332L6.76311 1.29736C7.15955 0.366011 8.53012 0.545624 8.67318 1.54767L10.4812 14.2112C10.6402 15.3246 12.2318 15.3684 12.4518 14.2655L13.7454 7.7823C13.9472 6.77053 15.363 6.69008 15.6782 7.67248L15.7482 7.89065C16.0445 8.81424 17.3502 8.8175 17.6511 7.8954L19.2073 3.12653C19.5185 2.17313 20.8829 2.2201 21.1277 3.19264L23.2798 11.7412C23.5378 12.766 25.0021 12.7423 25.2267 11.7097L25.9441 8.41241C26.0441 7.9528 26.4509 7.625 26.9212 7.625H29" stroke="white" stroke-opacity="0.29" stroke-width="0.5"/>
<path d="M0 8.54167H3.01832C3.41925 8.54167 3.78141 8.30222 3.93844 7.93332L6.76311 1.29736C7.15955 0.366011 8.53012 0.545624 8.67318 1.54767L10.4812 14.2112C10.6402 15.3246 12.2318 15.3684 12.4518 14.2655L13.7454 7.7823C13.9472 6.77053 15.363 6.69008 15.6782 7.67248L15.7482 7.89065C16.0445 8.81424 17.3502 8.8175 17.6511 7.8954L19.2073 3.12653C19.5185 2.17313 20.8829 2.2201 21.1277 3.19264L23.2798 11.7412C23.5378 12.766 25.0021 12.7423 25.2267 11.7097L25.9441 8.41241C26.0441 7.9528 26.4509 7.625 26.9212 7.625H29" stroke="white" stroke-opacity="0.29" stroke-width="0.5"/>
</svg>
