<svg width="135" height="193" viewBox="0 0 135 193" fill="none" xmlns="http://www.w3.org/2000/svg">
<path d="M133.999 42.3297C133.999 53.5799 105.502 62.7 70.3492 62.7C35.1963 62.7 6.69922 53.5799 6.69922 42.3297C6.69922 31.0795 35.1963 25.9667 70.3492 25.9667C105.502 25.9667 133.999 31.0795 133.999 42.3297Z" fill="#E3E3E3"/>
<path d="M24.1113 173.803C23.8558 171.189 13.0139 60.2592 11.4492 41.4833C13.029 60.3901 72.1402 59.8557 72.7199 59.85C72.7218 59.85 72.7232 59.85 72.7242 59.8499C72.7169 59.8498 72.7316 59.8498 72.7242 59.8499C72.7252 59.85 72.7266 59.85 72.7285 59.85C73.3083 59.8557 132.438 60.3901 133.999 41.4833C132.435 60.8826 121.596 171.174 121.337 173.802C121.329 173.885 121.333 173.895 121.332 173.977C121.115 192.85 72.7242 192.85 72.7242 192.85C72.7242 192.85 24.3324 192.85 24.1166 173.977C24.1157 173.894 24.1193 173.885 24.1113 173.803Z" fill="#F9F8FF" stroke="#4900E3" stroke-width="0.316667" stroke-dasharray="3.8 3.8"/>
<path d="M1.13281 39.3965L124.095 6.44882L128.193 21.7426C130.85 31.6578 113.125 42.3236 96.9709 49.804C80.9963 57.2013 63.8338 61.8 46.3007 63.3811C28.5705 64.9799 7.88753 64.6054 5.23078 54.6903L1.13281 39.3965Z" fill="url(#paint0_linear_4887_6413)" stroke="#4900E3" stroke-width="0.316667" stroke-dasharray="3.8 3.8"/>
<path d="M124.397 7.57216C127.308 18.439 102.143 34.624 68.1877 43.7222C34.2326 52.8204 4.34605 51.3867 1.43428 40.5198C-1.47749 29.653 24.7253 17.3388 58.6804 8.24052C92.6355 -0.857725 121.485 -3.2947 124.397 7.57216Z" fill="#F9F8FF" stroke="#4900E3" stroke-width="0.316667" stroke-dasharray="3.8 3.8"/>
<defs>
<linearGradient id="paint0_linear_4887_6413" x1="0.999219" y1="51.3001" x2="129.013" y2="24.8014" gradientUnits="userSpaceOnUse">
<stop stop-color="#F9F8FF"/>
<stop offset="0.40354" stop-color="#F9F8FF"/>
<stop offset="1" stop-color="#F9F8FF"/>
</linearGradient>
</defs>
</svg>
